<svg width="20" height="20" viewBox="0 0 20 20" fill="none" xmlns="http://www.w3.org/2000/svg">
<g clip-path="url(#clip0)">
<g clip-path="url(#clip1)">
<path d="M22.7243 2.85742H1.94395C-0.624793 2.85742 1.94395 2.85742 -2.72656 2.85742V16.6027H22.7243V2.85742Z" fill="#273375"/>
<path d="M22.7264 9.03586V8.35711H13.1469L20.1576 2.85742H17.6666L11.7506 7.49837V2.85742H8.40332V7.43729L2.56518 2.85742H1.94248C1.39755 2.85742 1.41941 2.85742 0.00547218 2.85742L7.07375 8.35711H-2.71191V8.47542V8.9563V9.03586V10.3608V11.0396V11.0402H7.22599L-0.0036602 16.6582H2.48732L8.40332 12.0172V16.6582H11.7506V12.0783L17.5887 16.6582H20.2743L12.9863 11.0402H22.7166V11.0396H22.7263V10.3608H22.7166V9.03586H22.7264Z" fill="white"/>
<path d="M10.9106 9.03587V9.02507V8.35711V2.85742H9.10398V8.35711V9.01738V9.03587H-2.71191V10.3608H8.40332H9.10398V10.4219V11.0396V16.6582H10.8943V11.0396V10.4219V10.3608H22.7166V9.03587H10.9106Z" fill="#E51D35"/>
<path d="M7.56165 8.35711H8.40332L1.37804 2.85742C0.948083 2.85742 0.948083 2.85742 0.618164 2.85742L7.56165 8.35711Z" fill="#E51D35"/>
<path d="M11.6895 11.0396L18.9132 16.6581H19.6137L12.4515 11.0396H11.6895Z" fill="#E51D35"/>
<path d="M0.532227 16.6581H1.31065L8.33273 11.0396H7.55563L0.532227 16.6581Z" fill="#E51D35"/>
<path d="M19.5639 2.85742C19.5639 2.85742 18.8518 2.85809 18.7392 2.85742L11.7139 8.35711H12.5555L19.5639 2.85742Z" fill="#AF0026"/>
</g>
</g>
<defs>
<clipPath id="clip0">
<rect width="20" height="20" fill="white"/>
</clipPath>
<clipPath id="clip1">
<rect y="2.85742" width="20" height="13.55" rx="2.14286" fill="white"/>
</clipPath>
</defs>
</svg>
